<?xml version="1.0" encoding="UTF-8" standalone="no"?>
<!-- Created with Inkscape (http://www.inkscape.org/) -->
<svg
   xmlns:dc="http://purl.org/dc/elements/1.1/"
   xmlns:cc="http://web.resource.org/cc/"
   xmlns:rdf="http://www.w3.org/1999/02/22-rdf-syntax-ns#"
   xmlns:svg="http://www.w3.org/2000/svg"
   xmlns="http://www.w3.org/2000/svg"
   xmlns:xlink="http://www.w3.org/1999/xlink"
   xmlns:sodipodi="http://inkscape.sourceforge.net/DTD/sodipodi-0.dtd"
   xmlns:inkscape="http://www.inkscape.org/namespaces/inkscape"
   width="640.00000px"
   height="480.00000px"
   id="svg7925"
   sodipodi:version="0.32"
   inkscape:version="0.42"
   sodipodi:docbase="/home/cronius/hjemmelaget/pics"
   sodipodi:docname="background1.svg"
   inkscape:export-filename="/home/cronius/hjemmelaget/pics/background1b.png"
   inkscape:export-xdpi="90.056915"
   inkscape:export-ydpi="90.056915">
  <defs
     id="defs7927">
    <linearGradient
       id="linearGradient5060">
      <stop
         id="stop5062"
         offset="0.0000000"
         style="stop-color:#000000;stop-opacity:0.73195875;" />
      <stop
         id="stop5064"
         offset="1"
         style="stop-color:#000000;stop-opacity:0;" />
    </linearGradient>
    <linearGradient
       inkscape:collect="always"
       id="linearGradient2577">
      <stop
         style="stop-color:#000000;stop-opacity:1;"
         offset="0"
         id="stop2579" />
      <stop
         style="stop-color:#000000;stop-opacity:0;"
         offset="1"
         id="stop2581" />
    </linearGradient>
    <linearGradient
       inkscape:collect="always"
       id="linearGradient2553">
      <stop
         style="stop-color:#000000;stop-opacity:1;"
         offset="0"
         id="stop2555" />
      <stop
         style="stop-color:#000000;stop-opacity:0;"
         offset="1"
         id="stop2557" />
    </linearGradient>
    <linearGradient
       inkscape:collect="always"
       id="linearGradient2545">
      <stop
         style="stop-color:#000000;stop-opacity:1;"
         offset="0"
         id="stop2547" />
      <stop
         style="stop-color:#000000;stop-opacity:0;"
         offset="1"
         id="stop2549" />
    </linearGradient>
    <linearGradient
       inkscape:collect="always"
       id="linearGradient2537">
      <stop
         style="stop-color:#000000;stop-opacity:1;"
         offset="0"
         id="stop2539" />
      <stop
         style="stop-color:#000000;stop-opacity:0;"
         offset="1"
         id="stop2541" />
    </linearGradient>
    <linearGradient
       inkscape:collect="always"
       id="linearGradient8292">
      <stop
         style="stop-color:#000000;stop-opacity:1;"
         offset="0"
         id="stop8294" />
      <stop
         style="stop-color:#000000;stop-opacity:0;"
         offset="1"
         id="stop8296" />
    </linearGradient>
    <linearGradient
       id="linearGradient8286">
      <stop
         id="stop8288"
         offset="0"
         style="stop-color:#000000;stop-opacity:1;" />
      <stop
         id="stop8290"
         offset="1"
         style="stop-color:#000000;stop-opacity:0;" />
    </linearGradient>
    <linearGradient
       inkscape:collect="always"
       id="linearGradient7509">
      <stop
         style="stop-color:#000000;stop-opacity:1;"
         offset="0"
         id="stop7511" />
      <stop
         style="stop-color:#000000;stop-opacity:0;"
         offset="1"
         id="stop7513" />
    </linearGradient>
    <linearGradient
       id="linearGradient5965">
      <stop
         style="stop-color:#000000;stop-opacity:0.0000000;"
         offset="0.0000000"
         id="stop5969" />
      <stop
         id="stop6713"
         offset="0.50000000"
         style="stop-color:#000000;stop-opacity:0.77319586;" />
      <stop
         id="stop5971"
         offset="1"
         style="stop-color:#000000;stop-opacity:0;" />
    </linearGradient>
    <linearGradient
       inkscape:collect="always"
       id="linearGradient5205">
      <stop
         style="stop-color:#47a395;stop-opacity:1;"
         offset="0"
         id="stop5207" />
      <stop
         style="stop-color:#47a395;stop-opacity:0;"
         offset="1"
         id="stop5209" />
    </linearGradient>
    <linearGradient
       inkscape:collect="always"
       id="linearGradient4438">
      <stop
         style="stop-color:#000000;stop-opacity:1;"
         offset="0"
         id="stop4440" />
      <stop
         style="stop-color:#000000;stop-opacity:0;"
         offset="1"
         id="stop4442" />
    </linearGradient>
    <linearGradient
       id="linearGradient3692">
      <stop
         style="stop-color:#000000;stop-opacity:0.0000000;"
         offset="0.0000000"
         id="stop3694" />
      <stop
         id="stop3700"
         offset="0.50000000"
         style="stop-color:#000000;stop-opacity:1.0000000;" />
      <stop
         style="stop-color:#000000;stop-opacity:0;"
         offset="1"
         id="stop3696" />
    </linearGradient>
    <linearGradient
       id="linearGradient11639">
      <stop
         style="stop-color:#000000;stop-opacity:1;"
         offset="0"
         id="stop11641" />
      <stop
         style="stop-color:#000000;stop-opacity:0;"
         offset="1"
         id="stop11643" />
    </linearGradient>
    <linearGradient
       id="linearGradient10904">
      <stop
         style="stop-color:#ffffff;stop-opacity:0.0000000;"
         offset="0.0000000"
         id="stop10906" />
      <stop
         id="stop10908"
         offset="0.50000000"
         style="stop-color:#3b9d8f;stop-opacity:1.0000000;" />
      <stop
         style="stop-color:#ffffff;stop-opacity:0.0000000;"
         offset="1.0000000"
         id="stop10910" />
    </linearGradient>
    <linearGradient
       id="linearGradient9416">
      <stop
         id="stop9418"
         offset="0.0000000"
         style="stop-color:#ffffff;stop-opacity:0.0000000;" />
      <stop
         style="stop-color:#3b9d8f;stop-opacity:1.0000000;"
         offset="0.50000000"
         id="stop9422" />
      <stop
         id="stop9420"
         offset="1.0000000"
         style="stop-color:#ffffff;stop-opacity:0.0000000;" />
    </linearGradient>
    <linearGradient
       id="linearGradient7935">
      <stop
         style="stop-color:#3b9d90;stop-opacity:1.0000000;"
         offset="0.0000000"
         id="stop7937" />
      <stop
         style="stop-color:#ffffff;stop-opacity:0.0000000;"
         offset="1.0000000"
         id="stop7939" />
    </linearGradient>
    <linearGradient
       inkscape:collect="always"
       xlink:href="#linearGradient7935"
       id="linearGradient8673"
       x1="638.93616"
       y1="211.51773"
       x2="-2.6188928e-07"
       y2="220.55319"
       gradientUnits="userSpaceOnUse" />
    <radialGradient
       inkscape:collect="always"
       xlink:href="#linearGradient9416"
       id="radialGradient9424"
       cx="120.68794"
       cy="230.87943"
       fx="120.68794"
       fy="230.87943"
       r="98.744682"
       gradientTransform="matrix(1.457516,0.000000,0.000000,1.673203,-46.18124,-252.2371)"
       gradientUnits="userSpaceOnUse" />
    <radialGradient
       inkscape:collect="always"
       xlink:href="#linearGradient9416"
       id="radialGradient9428"
       gradientUnits="userSpaceOnUse"
       gradientTransform="matrix(1.830065,0.000000,0.000000,1.450981,-43.38454,17.21127)"
       cx="120.68794"
       cy="230.87943"
       fx="120.68794"
       fy="230.87943"
       r="98.744682" />
    <radialGradient
       inkscape:collect="always"
       xlink:href="#linearGradient9416"
       id="radialGradient9431"
       gradientUnits="userSpaceOnUse"
       gradientTransform="matrix(1.830065,0.000000,0.000000,1.450981,-333.8101,-46.03696)"
       cx="120.68794"
       cy="230.87943"
       fx="120.68794"
       fy="230.87943"
       r="98.744682" />
    <radialGradient
       inkscape:collect="always"
       xlink:href="#linearGradient9416"
       id="radialGradient9436"
       gradientUnits="userSpaceOnUse"
       gradientTransform="matrix(1.405228,4.187090e-2,0.000000,1.297999,-8.246655,-70.62806)"
       cx="120.68794"
       cy="230.87943"
       fx="120.68794"
       fy="230.87943"
       r="98.744682" />
    <radialGradient
       inkscape:collect="always"
       xlink:href="#linearGradient9416"
       id="radialGradient10172"
       cx="-103.26241"
       cy="158.59575"
       fx="-103.26241"
       fy="158.59575"
       r="92.936172"
       gradientTransform="matrix(1.000000,0.000000,0.000000,0.861111,0.000000,22.02720)"
       gradientUnits="userSpaceOnUse" />
    <radialGradient
       inkscape:collect="always"
       xlink:href="#linearGradient11639"
       id="radialGradient11645"
       cx="-103.26242"
       cy="129.31098"
       fx="-103.26242"
       fy="129.31098"
       r="92.936174"
       gradientTransform="matrix(1.000000,0.000000,0.000000,0.546005,0.000000,58.70656)"
       gradientUnits="userSpaceOnUse" />
    <radialGradient
       inkscape:collect="always"
       xlink:href="#linearGradient9416"
       id="radialGradient11652"
       gradientUnits="userSpaceOnUse"
       gradientTransform="matrix(1.385620,5.923200e-2,0.000000,1.836194,-56.86604,-84.68347)"
       cx="120.68794"
       cy="230.87943"
       fx="120.68794"
       fy="230.87943"
       r="98.744682" />
    <linearGradient
       inkscape:collect="always"
       xlink:href="#linearGradient3692"
       id="linearGradient4436"
       x1="-193.81522"
       y1="34.249794"
       x2="-191.82695"
       y2="99.099915"
       gradientUnits="userSpaceOnUse"
       gradientTransform="matrix(1.794896e-3,-0.999998,0.999998,1.794896e-3,3.198457,-0.999199)" />
    <linearGradient
       inkscape:collect="always"
       xlink:href="#linearGradient4438"
       id="linearGradient4444"
       x1="-218.39998"
       y1="166.76169"
       x2="-214.20738"
       y2="52.165195"
       gradientUnits="userSpaceOnUse"
       gradientTransform="matrix(1.794896e-3,-0.999998,0.999998,1.794896e-3,3.198457,-0.999199)" />
    <radialGradient
       inkscape:collect="always"
       xlink:href="#linearGradient10904"
       id="radialGradient5180"
       cx="470.13486"
       cy="109.82350"
       fx="470.13486"
       fy="109.82350"
       r="239.85738"
       gradientTransform="matrix(1.000000,0.000000,0.000000,1.032058,0.000000,-3.520668)"
       gradientUnits="userSpaceOnUse" />
    <radialGradient
       inkscape:collect="always"
       xlink:href="#linearGradient5060"
       id="radialGradient5198"
       cx="470.13486"
       cy="109.82350"
       fx="470.13486"
       fy="109.82350"
       r="239.85738"
       gradientTransform="matrix(1.000000,0.000000,0.000000,1.032058,0.000000,-3.520668)"
       gradientUnits="userSpaceOnUse"
       spreadMethod="pad" />
    <radialGradient
       inkscape:collect="always"
       xlink:href="#linearGradient5205"
       id="radialGradient5939"
       cx="307.58643"
       cy="88.443375"
       fx="307.58643"
       fy="88.443375"
       r="92.184662"
       gradientTransform="matrix(1.000000,0.000000,0.000000,0.524752,0.000000,42.03250)"
       gradientUnits="userSpaceOnUse" />
    <pattern
       patternUnits="userSpaceOnUse"
       width="184.36932"
       height="96.748253"
       patternTransform="translate(218.1400,244.5184)"
       id="pattern5941">
      <rect
         style="opacity:0.73232323;fill:url(#radialGradient5939);fill-opacity:1.0;stroke:none;stroke-width:0.85799998;stroke-miterlimit:4.0000000;stroke-dasharray:none;stroke-opacity:1.0000000"
         id="rect5943"
         width="184.36932"
         height="96.748253"
         x="215.40178"
         y="40.069252"
         transform="translate(-215.4018,-40.06925)" />
    </pattern>
    <linearGradient
       inkscape:collect="always"
       xlink:href="#linearGradient5965"
       id="linearGradient5963"
       x1="218.62006"
       y1="294.71796"
       x2="402.50925"
       y2="298.36884"
       gradientUnits="userSpaceOnUse"
       gradientTransform="matrix(1.603961,0.000000,0.000000,1.000000,-14.91980,-204.4491)" />
    <linearGradient
       inkscape:collect="always"
       xlink:href="#linearGradient5965"
       id="linearGradient5975"
       gradientUnits="userSpaceOnUse"
       gradientTransform="matrix(1.603961,0.000000,0.000000,1.000000,-156.3913,-55.67586)"
       x1="218.62006"
       y1="294.71796"
       x2="402.50925"
       y2="298.36884" />
    <linearGradient
       inkscape:collect="always"
       xlink:href="#linearGradient5965"
       id="linearGradient5979"
       gradientUnits="userSpaceOnUse"
       gradientTransform="matrix(2.178219,0.000000,0.000000,0.188679,-460.5528,390.0539)"
       x1="218.62006"
       y1="294.71796"
       x2="402.50925"
       y2="298.36884" />
    <linearGradient
       inkscape:collect="always"
       xlink:href="#linearGradient5965"
       id="linearGradient6717"
       gradientUnits="userSpaceOnUse"
       gradientTransform="matrix(1.158416,0.000000,0.000000,0.707547,152.5507,184.6873)"
       x1="218.62006"
       y1="294.71796"
       x2="402.50925"
       y2="298.36884" />
    <linearGradient
       inkscape:collect="always"
       xlink:href="#linearGradient5965"
       id="linearGradient6721"
       gradientUnits="userSpaceOnUse"
       gradientTransform="matrix(1.583976,-7.129280e-20,-1.675036e-19,0.369329,-334.6639,-78.06454)"
       x1="218.62006"
       y1="294.71796"
       x2="402.50925"
       y2="298.36884" />
    <radialGradient
       inkscape:collect="always"
       xlink:href="#linearGradient7509"
       id="radialGradient7517"
       cx="401.25662"
       cy="213.48595"
       fx="401.25662"
       fy="213.48595"
       r="207.11450"
       gradientTransform="matrix(0.539519,0.000000,0.000000,0.676705,52.88302,141.1100)"
       gradientUnits="userSpaceOnUse" />
    <radialGradient
       inkscape:collect="always"
       xlink:href="#linearGradient8286"
       id="radialGradient8284"
       cx="328.91241"
       cy="232.08206"
       fx="328.91245"
       fy="232.08206"
       r="163.71486"
       gradientTransform="matrix(0.858452,-1.001871,0.564486,0.725235,-158.3802,432.0864)"
       gradientUnits="userSpaceOnUse" />
    <radialGradient
       inkscape:collect="always"
       xlink:href="#linearGradient8292"
       id="radialGradient8300"
       cx="328.91245"
       cy="232.08215"
       fx="328.91245"
       fy="232.08215"
       r="163.71486"
       gradientTransform="matrix(0.561468,-0.677287,0.641519,0.797414,-78.57678,308.5752)"
       gradientUnits="userSpaceOnUse" />
    <linearGradient
       inkscape:collect="always"
       xlink:href="#linearGradient2537"
       id="linearGradient2543"
       x1="484.23514"
       y1="135.74065"
       x2="485.66434"
       y2="57.605789"
       gradientUnits="userSpaceOnUse" />
    <linearGradient
       inkscape:collect="always"
       xlink:href="#linearGradient2545"
       id="linearGradient2551"
       x1="499.30447"
       y1="29.391947"
       x2="491.46127"
       y2="81.625359"
       gradientUnits="userSpaceOnUse" />
    <linearGradient
       inkscape:collect="always"
       xlink:href="#linearGradient2553"
       id="linearGradient2567"
       x1="427.49115"
       y1="24.057167"
       x2="423.62973"
       y2="62.965103"
       gradientUnits="userSpaceOnUse" />
    <linearGradient
       inkscape:collect="always"
       xlink:href="#linearGradient2577"
       id="linearGradient2583"
       x1="407.95810"
       y1="119.52706"
       x2="440.66806"
       y2="25.791584"
       gradientUnits="userSpaceOnUse" />
  </defs>
  <sodipodi:namedview
     id="base"
     pagecolor="#ffffff"
     bordercolor="#000000"
     borderopacity="1.0000000"
     inkscape:pageopacity="1.0000000"
     inkscape:pageshadow="2"
     inkscape:zoom="1.0956270"
     inkscape:cx="358.48036"
     inkscape:cy="246.26862"
     inkscape:current-layer="layer7"
     inkscape:document-units="px"
     borderlayer="top"
     inkscape:showpageshadow="false"
     inkscape:window-width="1016"
     inkscape:window-height="691"
     inkscape:window-x="0"
     inkscape:window-y="24"
     showguides="true"
     inkscape:guide-bbox="true" />
  <metadata
     id="metadata7930">
    <rdf:RDF>
      <cc:Work
         rdf:about="">
        <dc:format>image/svg+xml</dc:format>
        <dc:type
           rdf:resource="http://purl.org/dc/dcmitype/StillImage" />
      </cc:Work>
    </rdf:RDF>
  </metadata>
  <g
     inkscape:groupmode="layer"
     id="layer3"
     inkscape:label="background"
     style="display:inline"
     sodipodi:insensitive="true">
    <rect
       style="opacity:1.0000000;fill:url(#linearGradient8673);fill-opacity:1.0000000;stroke:none;stroke-width:0.89061493;stroke-miterlimit:4.0000000;stroke-dasharray:none;stroke-opacity:1.0000000"
       id="rect7933"
       width="640.22693"
       height="480.17020"
       x="-2.6188928e-07"
       y="-0.17021613" />
  </g>
  <g
     inkscape:groupmode="layer"
     id="layer2"
     inkscape:label="cirkles"
     style="display:inline"
     sodipodi:insensitive="true">
    <rect
       style="opacity:1.0000000;fill:url(#radialGradient9424);fill-opacity:1.0000000;stroke:none;stroke-width:0.89061493;stroke-miterlimit:4.0000000;stroke-dasharray:none;stroke-opacity:1.0000000"
       id="rect2218"
       width="287.84396"
       height="330.43973"
       x="-14.198582"
       y="-31.148933" />
    <rect
       style="opacity:1.0000000;fill:url(#radialGradient9424);fill-opacity:1.0000000;stroke:none;stroke-width:0.89061493;stroke-miterlimit:4.0000000;stroke-dasharray:none;stroke-opacity:1.0000000"
       id="rect8675"
       width="287.84396"
       height="330.43973"
       x="-14.198582"
       y="-31.148933" />
    <path
       style="opacity:1.0000000;fill:url(#radialGradient9436);fill-opacity:1.0000000;stroke:none;stroke-width:0.89061493;stroke-miterlimit:4.0000000;stroke-opacity:1.0000000"
       d="M 22.588657,101.80141 L 300.10638,110.07047 L 300.10638,366.41134 L 22.588657,358.14228 L 22.588657,101.80141 z "
       id="path2220" />
    <path
       style="fill:url(#radialGradient11652);fill-opacity:1.0000000;stroke:none;stroke-width:0.89061493;stroke-miterlimit:4.0000000;stroke-opacity:1.0000000"
       d="M -26.460988,159.24113 L 247.18439,170.93883 L 247.18439,533.56739 L -26.460988,521.86968 L -26.460988,159.24113 z "
       id="path11650" />
  </g>
  <g
     inkscape:groupmode="layer"
     id="layer5"
     inkscape:label="boxes"
     sodipodi:insensitive="true"
     style="display:inline">
    <rect
       style="fill:url(#linearGradient5963);fill-opacity:1.0000000;fill-rule:evenodd;stroke:none"
       width="295.72107"
       height="96.748253"
       x="334.96805"
       y="40.069256"
       id="rect5945" />
    <rect
       style="fill:url(#linearGradient5975);fill-opacity:1.0000000;fill-rule:evenodd;stroke:none"
       width="295.72107"
       height="96.748253"
       x="193.49652"
       y="188.84251"
       id="rect5973" />
    <rect
       style="fill:url(#linearGradient5979);fill-opacity:1.0000000;fill-rule:evenodd;stroke:none"
       width="401.59653"
       height="18.254385"
       x="14.603514"
       y="436.18948"
       id="rect5977" />
    <rect
       style="fill:url(#linearGradient6717);fill-opacity:1.0000000;fill-rule:evenodd;stroke:none"
       width="213.57632"
       height="68.453949"
       x="405.24744"
       y="357.69562"
       id="rect6715" />
    <rect
       style="fill:url(#linearGradient6721);fill-opacity:1.0000000;fill-rule:evenodd;stroke:none"
       width="292.03662"
       height="35.731911"
       x="10.864592"
       y="12.243162"
       id="rect6719"
       transform="matrix(1.000000,-5.074401e-4,3.482093e-3,0.999994,0.000000,0.000000)" />
  </g>
  <g
     inkscape:groupmode="layer"
     id="layer6"
     inkscape:label="notstandingblocks"
     sodipodi:insensitive="true"
     style="display:inline">
    <path
       style="font-size:41.244381px;font-style:normal;font-variant:normal;font-weight:bold;font-stretch:normal;text-align:start;line-height:125.00000%;writing-mode:lr-tb;text-anchor:start;opacity:0.43939391;fill:url(#radialGradient8300);fill-opacity:1.0000000;stroke:url(#radialGradient8284);stroke-width:0.87214422px;stroke-linecap:butt;stroke-linejoin:miter;stroke-opacity:1.0000000;font-family:Bitstream Vera Sans"
       d="M 143.13308,434.41132 L 139.83224,427.09632 L 149.89005,408.23360 L 135.66396,417.85899 L 132.86207,411.64973 L 153.60383,397.61584 L 156.90467,404.93086 L 146.84686,423.79357 L 161.07295,414.16818 L 163.87484,420.37744 L 143.13308,434.41132 M 136.31267,383.67115 C 136.53581,385.18867 137.15424,386.25039 138.16797,386.85632 C 139.16943,387.45181 140.50850,387.56472 142.18517,387.19507 C 143.86185,386.82543 145.08987,386.14656 145.86924,385.15847 C 146.63632,384.15994 146.90830,382.90191 146.68516,381.38438 C 146.46580,379.89238 145.85539,378.84865 144.85393,378.25315 C 143.84207,377.65998 142.49780,377.54821 140.82111,377.91784 C 139.14444,378.28750 137.92163,378.96523 137.15266,379.95100 C 136.37330,380.93910 136.09331,382.17915 136.31267,383.67115 M 132.31363,384.55280 C 131.77178,380.86742 132.16127,377.81272 133.48211,375.38867 C 134.80111,372.95192 136.89775,371.41669 139.77204,370.78298 C 142.64636,370.14933 145.04863,370.69271 146.97885,372.41312 C 148.90721,374.12083 150.14233,376.81737 150.68420,380.50274 C 151.22795,384.20088 150.84127,387.27471 149.52417,389.72424 C 148.20519,392.16102 146.10855,393.69625 143.23423,394.32993 C 140.35994,394.96361 137.95767,394.42023 136.02742,392.69979 C 134.09533,390.96660 132.85740,388.25093 132.31363,384.55280 M 126.90543,353.35216 L 131.92821,353.96203 L 132.50615,346.82520 L 136.54965,347.31617 L 135.97171,354.45300 L 143.47431,355.36398 C 144.29565,355.46371 144.86993,355.33162 145.19712,354.96769 C 145.51381,354.60251 145.72018,353.82679 145.81623,352.64054 L 146.10442,349.08179 L 150.14792,349.57276 L 149.66709,355.51044 C 149.44573,358.24398 148.82527,360.12828 147.80571,361.16332 C 146.77666,362.18420 145.14596,362.55911 142.91361,362.28806 L 135.41101,361.37709 L 135.13222,364.81978 L 131.08872,364.32881 L 131.36751,360.88611 L 126.34471,360.27624 L 126.90543,353.35216 M 141.28493,300.64076 L 145.77906,303.36781 C 144.67969,304.47943 143.72241,305.63386 142.90720,306.83109 C 142.09202,308.02839 141.44010,309.23073 140.95145,310.43814 C 140.30307,312.04033 140.00398,313.33385 140.05415,314.31871 C 140.10436,315.30360 140.50870,316.02617 141.26720,316.48642 C 141.83608,316.83163 142.38507,316.84662 142.91415,316.53137 C 143.43848,316.19881 144.08926,315.42238 144.86653,314.20208 L 146.49167,311.63083 C 148.13566,309.02765 149.68786,307.40996 151.14829,306.77773 C 152.60871,306.14555 154.23017,306.37025 156.01265,307.45185 C 158.35452,308.87294 159.75374,310.78487 160.21031,313.18765 C 160.66208,315.57310 160.18086,318.51311 158.76663,322.00768 C 158.09944,323.65629 157.30192,325.23303 156.37405,326.73790 C 155.44617,328.24278 154.39504,329.67286 153.22065,331.02815 L 148.59853,328.22342 C 149.99099,327.00046 151.18455,325.72911 152.17921,324.40937 C 153.16909,323.07228 153.95534,321.68392 154.53795,320.24427 C 155.12995,318.78144 155.38424,317.54027 155.30083,316.52075 C 155.21741,315.50126 154.80593,314.76714 154.06639,314.31836 C 153.40270,313.91566 152.78265,313.87200 152.20623,314.18742 C 151.63451,314.49126 150.88694,315.34634 149.96350,316.75266 L 148.44408,319.06269 C 146.93653,321.38716 145.44066,322.85106 143.95649,323.45438 C 142.47702,324.04611 140.89345,323.82993 139.20577,322.80584 C 137.09146,321.52286 135.80371,319.70026 135.34251,317.33803 C 134.88136,314.97583 135.28505,312.22739 136.55362,309.09269 C 137.13155,307.66470 137.81598,306.25071 138.60690,304.85071 C 139.38838,303.44501 140.28105,302.04170 141.28493,300.64076 M 150.53726,283.94329 L 154.65529,287.51717 L 158.04199,281.66591 L 161.35713,284.54300 L 157.97042,290.39425 L 164.12156,295.73259 C 164.79494,296.31701 165.34734,296.55025 165.77875,296.43231 C 166.20152,296.30691 166.69437,295.75791 167.25729,294.78533 L 168.94605,291.86764 L 172.26119,294.74472 L 169.44353,299.61284 C 168.14636,301.85398 166.84563,303.11531 165.54135,303.39681 C 164.23455,303.66027 162.66604,302.99782 160.83581,301.40942 L 154.68468,296.07108 L 153.05098,298.89363 L 149.73584,296.01656 L 151.36954,293.19400 L 147.25151,289.62012 L 150.53726,283.94329 M 174.03180,277.07909 C 173.24654,278.16603 172.80466,279.14919 172.70618,280.02860 C 172.61472,280.89832 172.86222,281.65083 173.44870,282.28614 C 173.98762,282.86995 174.56939,283.11092 175.19399,283.00902 C 175.81767,282.88886 176.41347,282.43574 176.98139,281.64965 C 177.68952,280.66949 178.00017,279.53551 177.91333,278.24773 C 177.81855,276.95139 177.33923,275.83531 176.47537,274.89948 L 175.98796,274.37148 L 174.03180,277.07909 M 178.17969,267.37785 L 185.77617,275.60695 L 181.97955,280.86204 L 180.00613,278.72427 C 180.30970,280.29874 180.33222,281.72443 180.07371,283.00135 C 179.80725,284.26970 179.22180,285.52984 178.31735,286.78173 C 177.09737,288.47036 175.70505,289.41001 174.14035,289.60069 C 172.57474,289.77309 171.14998,289.16387 169.86606,287.77304 C 168.30476,286.08172 167.63281,284.18607 167.85020,282.08607 C 168.07460,279.97638 169.20344,277.51436 171.23672,274.69998 L 173.45580,271.62845 L 173.12293,271.26786 C 172.44927,270.53813 171.72301,270.33094 170.94417,270.64630 C 170.15740,270.95312 169.26621,271.79556 168.27060,273.17359 C 167.46430,274.28965 166.80524,275.42678 166.29340,276.58500 C 165.78157,277.74325 165.40996,278.93227 165.17856,280.15208 L 161.93311,276.63636 C 162.51751,275.27996 163.16088,273.97877 163.86323,272.73281 C 164.55766,271.47830 165.31153,270.28817 166.12484,269.16241 C 168.24927,266.22191 170.25676,264.61656 172.14732,264.34635 C 174.03697,264.05791 176.04776,265.06840 178.17969,267.37785 M 195.21929,246.37765 L 202.60274,256.07097 L 198.42416,260.84340 L 197.22245,259.26574 L 192.77288,253.42417 C 191.72635,252.05026 190.97752,251.13365 190.52640,250.67435 C 190.08301,250.20626 189.70558,249.91972 189.39412,249.81474 C 188.97901,249.66872 188.56360,249.66476 188.14790,249.80287 C 187.72498,249.93154 187.33554,250.19914 186.97959,250.60566 C 186.11292,251.59552 185.74592,252.78543 185.87860,254.17538 C 186.00406,255.55591 186.61892,256.97102 187.72320,258.42074 L 193.68843,266.25214 L 189.53305,270.99805 L 177.40773,255.07941 L 181.56310,250.33350 L 183.33859,252.66444 C 183.25807,251.02001 183.40389,249.57774 183.77606,248.33761 C 184.14101,247.08804 184.74908,245.97717 185.60027,245.00499 C 187.10147,243.29047 188.66841,242.55510 190.30110,242.79885 C 191.94152,243.03383 193.58092,244.22677 195.21929,246.37765 M 206.56566,228.11342 L 200.59571,219.02764 L 205.04768,214.64150 L 220.52975,238.20393 L 216.07778,242.59008 L 214.46590,240.13693 C 214.51249,241.73743 214.32149,243.13133 213.89288,244.31860 C 213.46425,245.50590 212.76765,246.57470 211.80306,247.52503 C 210.09647,249.20639 208.15100,249.75940 205.96664,249.18406 C 203.77565,248.59862 201.82115,246.99857 200.10313,244.38388 C 198.38511,241.76921 197.53042,239.09391 197.53906,236.35797 C 197.54109,233.61197 198.39538,231.39829 200.10196,229.71691 C 201.05831,228.77473 202.05925,228.17941 203.10476,227.93097 C 204.15188,227.66435 205.30552,227.72517 206.56566,228.11342 M 210.86084,241.96743 C 211.80893,241.03335 212.25172,239.89863 212.18920,238.56326 C 212.13490,237.21980 211.57709,235.74044 210.51578,234.12517 C 209.45445,232.50994 208.39374,231.52605 207.33364,231.17349 C 206.28178,230.81287 205.28180,231.09958 204.33370,232.03364 C 203.39384,232.95963 202.95105,234.09435 203.00534,235.43780 C 203.06787,236.77318 203.62980,238.24848 204.69112,239.86371 C 205.75244,241.47897 206.80903,242.46693 207.86090,242.82756 C 208.92100,243.18011 209.92097,242.89339 210.86084,241.96743 M 214.44404,216.70695 L 219.02122,212.58376 L 229.55556,230.11827 L 224.97839,234.24147 L 214.44404,216.70695 M 210.34318,209.88102 L 214.92035,205.75782 L 217.66680,210.32932 L 213.08963,214.45252 L 210.34318,209.88102 M 242.61382,202.87562 L 248.71541,213.82458 L 243.99554,217.76845 L 243.00247,215.98643 L 239.32542,209.38816 C 238.46057,207.83628 237.83354,206.79156 237.44432,206.25401 C 237.06383,205.70920 236.72613,205.35608 236.43121,205.19463 C 236.03890,204.97344 235.62876,204.89261 235.20079,204.95216 C 234.76683,205.00105 234.34883,205.19346 233.94677,205.52940 C 232.96784,206.34740 232.45813,207.45567 232.41764,208.85422 C 232.37119,210.24210 232.80423,211.75479 233.71678,213.39230 L 238.64636,222.23816 L 233.95272,226.16011 L 223.93253,208.17942 L 228.62617,204.25747 L 230.09341,206.89036 C 230.21689,205.24993 230.53913,203.85123 231.06015,202.69426 C 231.57520,201.52665 232.31346,200.54113 233.27492,199.73772 C 234.97057,198.32089 236.61030,197.88410 238.19412,198.42735 C 239.78666,198.96336 241.25989,200.44612 242.61382,202.87562 M 261.85277,199.30054 C 261.73807,200.88550 261.41031,202.23621 260.86949,203.35268 C 260.32865,204.46917 259.53323,205.42902 258.48323,206.23221 C 256.64348,207.63952 254.67102,207.91850 252.56584,207.06913 C 250.45505,206.20879 248.69888,204.40497 247.29730,201.65767 C 245.89012,198.89939 245.33932,196.18115 245.64487,193.50296 C 245.94483,190.81382 247.01468,188.76559 248.85442,187.35825 C 249.90443,186.55507 250.95774,186.10073 252.01435,185.99523 C 253.07096,185.88978 254.20883,186.12700 255.42796,186.70691 L 254.03199,183.97059 L 258.87816,180.26353 L 267.34647,196.86272 C 268.86015,199.82981 269.24774,202.68054 268.50923,205.41491 C 267.78526,208.15341 265.96944,210.63477 263.06175,212.85901 C 262.11943,213.57983 261.16368,214.18871 260.19450,214.68564 C 259.22530,215.18258 258.20397,215.58954 257.13051,215.90653 L 254.78427,211.30755 C 255.93060,211.25567 256.98049,211.06366 257.93396,210.73153 C 258.89301,210.41040 259.78088,209.93748 260.59756,209.31276 C 262.17704,208.10453 263.11889,206.79588 263.42312,205.38678 C 263.72733,203.97769 263.41971,202.37203 262.50030,200.56979 L 261.85277,199.30054 M 252.81446,190.24151 C 251.81829,191.00354 251.27187,192.04791 251.17517,193.37464 C 251.07847,194.70140 251.45060,196.18895 252.29154,197.83732 C 253.15491,199.52967 254.08008,200.60946 255.06705,201.07669 C 256.04840,201.53295 257.05511,201.36634 258.08717,200.57686 C 259.09230,199.80800 259.64321,198.76019 259.73991,197.43344 C 259.83660,196.10672 259.46728,194.62464 258.63195,192.98724 C 257.79100,191.33888 256.86246,190.27694 255.84634,189.80144 C 254.83021,189.32597 253.81958,189.47266 252.81446,190.24151 M 284.21679,166.92628 C 285.05747,166.35134 285.59172,165.68914 285.81953,164.93966 C 286.04734,164.19023 285.96000,163.37432 285.55754,162.49194 C 285.16023,161.62091 284.64128,161.10762 284.00069,160.95205 C 283.35494,160.78523 282.61171,160.98929 281.77103,161.56422 L 278.81939,163.58290 L 281.26515,168.94496 L 284.21679,166.92628 M 289.45099,177.88354 C 290.52263,177.15064 291.19995,176.32380 291.48295,175.40302 C 291.77516,174.47596 291.66587,173.45246 291.15506,172.33251 C 290.65454,171.23523 290.01254,170.59831 289.22906,170.42176 C 288.44040,170.23393 287.50563,170.50962 286.42475,171.24884 L 283.29296,173.39073 L 286.31921,180.02543 L 289.45099,177.88354 M 290.25572,165.37853 C 291.58702,165.00234 292.81702,165.14806 293.94575,165.81569 C 295.07444,166.48337 296.00256,167.61473 296.73011,169.20975 C 297.84462,171.65323 298.00096,173.93575 297.19912,176.05732 C 296.39726,178.17891 294.61982,180.18111 291.86682,182.06394 L 283.01190,188.11999 L 271.45645,162.78593 L 279.46607,157.30800 C 282.33918,155.34307 284.66031,154.45313 286.42946,154.63823 C 288.20784,154.81707 289.63108,156.07731 290.69917,158.41893 C 291.26158,159.65201 291.50587,160.86518 291.43203,162.05843 C 291.35301,163.24043 290.96091,164.34713 290.25572,165.37853 M 292.90026,146.91325 L 297.91817,143.64832 L 309.50702,170.35444 L 304.48910,173.61938 L 292.90026,146.91325 M 315.49451,147.05965 C 314.37240,147.75933 313.72079,148.79087 313.53967,150.15427 C 313.36317,151.50026 313.66145,153.10274 314.43452,154.96170 C 315.20756,156.82070 316.09287,158.06441 317.09044,158.69286 C 318.09263,159.30391 319.15478,159.25959 320.27689,158.55991 C 321.38013,157.87201 322.02000,156.85507 322.19650,155.50907 C 322.36819,154.15156 322.06750,152.54330 321.29445,150.68431 C 320.52139,148.82535 319.63848,147.58741 318.64573,146.97047 C 317.64816,146.34203 316.59775,146.37176 315.49451,147.05965 M 313.65070,142.62580 C 316.37581,140.92663 318.87668,140.50141 321.15331,141.35014 C 323.43935,142.19304 325.24500,144.20789 326.57024,147.39469 C 327.89547,150.58152 328.16411,153.55474 327.37617,156.31434 C 326.59763,159.06809 324.84581,161.29456 322.12070,162.99375 C 319.38615,164.69884 316.87114,165.13288 314.57566,164.29587 C 312.28960,163.45301 310.48396,161.43816 309.15873,158.25132 C 307.83349,155.06452 307.56485,152.09130 308.35280,149.33167 C 309.15019,146.56620 310.91615,144.33091 313.65070,142.62580 M 339.76008,128.19677 L 341.78104,133.30409 C 340.85518,133.13353 339.98455,133.11736 339.16914,133.25558 C 338.36325,133.38821 337.58415,133.67768 336.83188,134.12399 C 335.40348,134.97151 334.49235,136.14562 334.09848,137.64632 C 333.70953,139.12975 333.87726,140.78681 334.60167,142.61750 C 335.32607,144.44821 336.28648,145.64215 337.48291,146.19933 C 338.68423,146.73920 339.99909,146.58539 341.42749,145.73789 C 342.22738,145.26330 342.92675,144.66837 343.52561,143.95310 C 344.13396,143.23221 344.62983,142.40527 345.01320,141.47229 L 347.04109,146.59710 C 346.38420,147.43318 345.67614,148.18444 344.91690,148.85089 C 344.17176,149.52336 343.38497,150.10536 342.55651,150.59691 C 339.67115,152.30884 337.05669,152.74420 334.71314,151.90296 C 332.36498,151.05005 330.55185,149.00862 329.27375,145.77865 C 327.99566,142.54869 327.81321,139.54695 328.72639,136.77341 C 329.63497,133.98824 331.53194,131.73968 334.41730,130.02773 C 335.25528,129.53056 336.11591,129.13512 336.99916,128.84142 C 337.88731,128.53045 338.80762,128.31558 339.76008,128.19677 M 341.37430,117.13036 L 346.53105,114.20775 L 352.17795,129.14731 L 355.37242,118.53456 L 361.36463,115.13845 L 356.91227,128.67004 L 369.45099,134.54221 L 363.19951,138.08525 L 353.79135,133.41576 L 356.90482,141.65280 L 351.74806,144.57541 L 341.37430,117.13036 M 377.14524,107.33412 L 378.89385,112.16765 C 377.57552,112.20255 376.34733,112.35858 375.20927,112.63578 C 374.07120,112.91301 373.04261,113.30090 372.12351,113.79944 C 371.13668,114.33475 370.45711,114.88761 370.08480,115.45801 C 369.71787,116.01135 369.64799,116.60196 369.87514,117.22982 C 370.05943,117.73925 370.37985,118.03311 370.83639,118.11140 C 371.30260,118.18447 372.02851,118.03163 373.01411,117.65287 L 373.98625,117.31686 C 376.79681,116.28831 378.83309,115.99863 380.09507,116.44780 C 381.35703,116.89701 382.35446,118.13451 383.08734,120.16030 C 383.85449,122.28091 383.79239,124.22068 382.90106,125.97963 C 382.00969,127.73858 380.29662,129.30556 377.76183,130.68053 C 376.68792,131.26306 375.53674,131.75996 374.30830,132.17123 C 373.09381,132.58910 371.80689,132.91872 370.44753,133.16007 L 368.69893,128.32655 C 369.95699,128.38106 371.18353,128.26843 372.37854,127.98866 C 373.58322,127.70366 374.74670,127.25677 375.86898,126.64799 C 376.88483,126.09696 377.58700,125.51059 377.97548,124.88888 C 378.36395,124.26719 378.43604,123.61870 378.19176,122.94342 C 377.98603,122.37477 377.65490,122.05130 377.19837,121.97299 C 376.74721,121.87761 375.96649,122.03891 374.85623,122.45693 L 373.89053,122.81071 C 371.44967,123.70958 369.59128,123.93112 368.31535,123.47533 C 367.03942,123.01955 366.04787,121.81429 365.34071,119.85954 C 364.57784,117.75081 364.60227,115.86691 365.41402,114.20780 C 366.22576,112.54873 367.85067,111.05794 370.28871,109.73541 C 371.24652,109.21588 372.28484,108.75894 373.40369,108.36459 C 374.52253,107.97028 375.76971,107.62680 377.14524,107.33412"
       id="text6724" />
    <path
       style="fill:none;fill-opacity:1.0000000;fill-rule:evenodd;stroke:url(#radialGradient7517);stroke-width:0.65425313px;stroke-linecap:butt;stroke-linejoin:miter;stroke-opacity:1.0000000"
       d="M 169.58884,425.33607 C 97.694122,286.30131 380.84114,145.81833 380.84114,145.81833"
       id="path6771"
       sodipodi:nodetypes="cc" />
    <path
       transform="matrix(0.765571,0.589938,-0.483904,0.933325,0.000000,0.000000)"
       style="font-size:22.329987px;font-style:normal;font-weight:normal;opacity:0.41414139;fill:url(#linearGradient2583);fill-opacity:1.0000000;stroke:url(#linearGradient2567);stroke-width:1.0000000px;stroke-linecap:butt;stroke-linejoin:miter;stroke-opacity:1.0000000;font-family:Bitstream Vera Sans"
       d="M 378.99323,43.931672 L 392.76412,43.931672 L 392.76412,45.785235 L 386.98536,45.785235 L 386.98536,60.210320 L 384.77199,60.210320 L 384.77199,45.785235 L 378.99323,45.785235 L 378.99323,43.931672 M 404.96493,52.839679 L 404.96493,60.210320 L 402.95872,60.210320 L 402.95872,52.905099 C 402.95871,51.749357 402.73337,50.884361 402.28271,50.310111 C 401.83203,49.735880 401.15603,49.448760 400.25470,49.448749 C 399.17163,49.448760 398.31754,49.794031 397.69242,50.484564 C 397.06729,51.175116 396.75473,52.116434 396.75473,53.308522 L 396.75473,60.210320 L 394.73762,60.210320 L 394.73762,43.244763 L 396.75473,43.244763 L 396.75473,49.895785 C 397.23447,49.161639 397.79781,48.612840 398.44475,48.249384 C 399.09894,47.885953 399.85127,47.704231 400.70173,47.704219 C 402.10462,47.704231 403.16587,48.140363 403.88550,49.012616 C 404.60511,49.877623 404.96492,51.153309 404.96493,52.839679 M 419.43363,53.602911 L 419.43363,54.584210 L 410.20942,54.584210 C 410.29664,55.965300 410.71097,57.019286 411.45240,57.746171 C 412.20109,58.465791 413.24054,58.825600 414.57075,58.825599 C 415.34124,58.825600 416.08630,58.731105 416.80593,58.542113 C 417.53280,58.353124 418.25242,58.069638 418.96478,57.691654 L 418.96478,59.588831 C 418.24515,59.894124 417.50736,60.126728 416.75141,60.286643 C 415.99544,60.446558 415.22857,60.526515 414.45081,60.526516 C 412.50275,60.526515 410.95811,59.959544 409.81690,58.825599 C 408.68296,57.691657 408.11598,56.157925 408.11599,54.224400 C 408.11598,52.225467 408.65388,50.640854 409.72968,49.470555 C 410.81273,48.293010 412.27014,47.704231 414.10190,47.704219 C 415.74466,47.704231 417.04215,48.234859 417.99439,49.296102 C 418.95387,50.350099 419.43361,51.785701 419.43363,53.602911 M 417.42742,53.014132 C 417.41287,51.916540 417.10394,51.040642 416.50063,50.386434 C 415.90458,49.732245 415.11227,49.405146 414.12371,49.405136 C 413.00430,49.405146 412.10659,49.721342 411.43059,50.353724 C 410.76185,50.986125 410.37660,51.876562 410.27484,53.025036 L 417.42742,53.014132 M 427.80737,61.344264 C 427.24039,62.798037 426.68796,63.746624 426.15007,64.190029 C 425.61216,64.633426 424.89255,64.855127 423.99121,64.855131 L 422.38842,64.855131 L 422.38842,63.176021 L 423.56598,63.176021 C 424.11841,63.176018 424.54727,63.045178 424.85257,62.783502 C 425.15786,62.521820 425.49586,61.903966 425.86658,60.929938 L 426.22639,60.014060 L 421.28719,47.998608 L 423.41333,47.998608 L 427.22949,57.549911 L 431.04565,47.998608 L 433.17180,47.998608 L 427.80737,61.344264 M 448.59999,54.071754 C 446.97902,54.071760 445.85598,54.257116 445.23086,54.627823 C 444.60574,54.998541 444.29318,55.630932 444.29318,56.524999 C 444.29318,57.237352 444.52578,57.804324 444.99099,58.225916 C 445.46346,58.640244 446.10312,58.847407 446.90997,58.847405 C 448.02211,58.847407 448.91254,58.454888 449.58129,57.669847 C 450.25728,56.877543 450.59528,55.827192 450.59529,54.518790 L 450.59529,54.071754 L 448.59999,54.071754 M 452.60150,53.243102 L 452.60150,60.210320 L 450.59529,60.210320 L 450.59529,58.356756 C 450.13735,59.098183 449.56674,59.646982 448.88347,60.003157 C 448.20019,60.352062 447.36427,60.526515 446.37571,60.526516 C 445.12546,60.526515 444.12963,60.177610 443.38820,59.479797 C 442.65405,58.774718 442.28697,57.833399 442.28697,56.655839 C 442.28697,55.282027 442.74491,54.246213 443.66079,53.548395 C 444.58393,52.850590 445.95775,52.501684 447.78224,52.501677 L 450.59529,52.501677 L 450.59529,52.305417 C 450.59528,51.382279 450.28999,50.669930 449.67942,50.168368 C 449.07609,49.659557 448.22563,49.405146 447.12804,49.405136 C 446.43022,49.405146 445.75058,49.488738 445.08912,49.655912 C 444.42765,49.823106 443.79162,50.073882 443.18104,50.408240 L 443.18104,48.554677 C 443.91519,48.271203 444.62754,48.060406 445.31809,47.922285 C 446.00863,47.776920 446.68100,47.704231 447.33520,47.704219 C 449.10153,47.704231 450.42083,48.162170 451.29311,49.078036 C 452.16536,49.993925 452.60149,51.382279 452.60150,53.243102 M 463.82102,49.873978 C 463.59567,49.743149 463.34853,49.648653 463.07959,49.590492 C 462.81790,49.525083 462.52715,49.492373 462.20733,49.492362 C 461.07338,49.492373 460.20111,49.863085 459.59053,50.604500 C 458.98721,51.338665 458.68555,52.396286 458.68556,53.777364 L 458.68556,60.210320 L 456.66844,60.210320 L 456.66844,47.998608 L 458.68556,47.998608 L 458.68556,49.895785 C 459.10715,49.154370 459.65595,48.605571 460.33196,48.249384 C 461.00796,47.885953 461.82934,47.704231 462.79611,47.704219 C 462.93421,47.704231 463.08685,47.715134 463.25404,47.736929 C 463.42122,47.751479 463.60658,47.776920 463.81011,47.813252 L 463.82102,49.873978 M 475.91279,53.602911 L 475.91279,54.584210 L 466.68859,54.584210 C 466.77581,55.965300 467.19013,57.019286 467.93156,57.746171 C 468.68025,58.465791 469.71970,58.825600 471.04991,58.825599 C 471.82040,58.825600 472.56546,58.731105 473.28509,58.542113 C 474.01197,58.353124 474.73159,58.069638 475.44395,57.691654 L 475.44395,59.588831 C 474.72432,59.894124 473.98653,60.126728 473.23057,60.286643 C 472.47460,60.446558 471.70774,60.526515 470.92998,60.526516 C 468.98191,60.526515 467.43728,59.959544 466.29607,58.825599 C 465.16212,57.691657 464.59515,56.157925 464.59515,54.224400 C 464.59515,52.225467 465.13304,50.640854 466.20884,49.470555 C 467.29190,48.293010 468.74931,47.704231 470.58107,47.704219 C 472.22383,47.704231 473.52132,48.234859 474.47355,49.296102 C 475.43303,50.350099 475.91278,51.785701 475.91279,53.602911 M 473.90658,53.014132 C 473.89203,51.916540 473.58310,51.040642 472.97980,50.386434 C 472.38374,49.732245 471.59143,49.405146 470.60288,49.405136 C 469.48346,49.405146 468.58576,49.721342 467.90976,50.353724 C 467.24102,50.986125 466.85577,51.876562 466.75401,53.025036 L 473.90658,53.014132"
       id="text8302" />
    <path
       transform="matrix(0.743126,0.607757,-0.469717,0.961515,0.000000,0.000000)"
       style="font-size:32.011795px;font-style:normal;font-variant:normal;font-weight:bold;font-stretch:normal;text-align:start;line-height:125.00000%;writing-mode:lr-tb;text-anchor:start;fill:url(#linearGradient2551);fill-opacity:1.0000000;stroke:url(#linearGradient2543);stroke-width:1.0000000px;stroke-linecap:butt;stroke-linejoin:miter;stroke-opacity:1.0000000;font-family:Bitstream Vera Sans"
       d="M 411.71721,62.944610 L 427.95757,62.944610 L 427.95757,67.493161 L 417.73505,67.493161 L 417.73505,71.838512 L 427.34797,71.838512 L 427.34797,76.387063 L 417.73505,76.387063 L 417.73505,86.281334 L 411.71721,86.281334 L 411.71721,62.944610 M 444.07288,82.029767 L 434.66316,82.029767 L 433.17824,86.281334 L 427.12914,86.281334 L 435.77295,62.944610 L 442.94747,62.944610 L 451.59128,86.281334 L 445.54217,86.281334 L 444.07288,82.029767 M 436.16372,77.700047 L 442.55670,77.700047 L 439.36802,68.415376 L 436.16372,77.700047 M 454.67054,62.944610 L 460.68838,62.944610 L 460.68838,81.732783 L 471.25477,81.732783 L 471.25477,86.281334 L 454.67054,86.281334 L 454.67054,62.944610 M 475.05305,62.944610 L 481.07089,62.944610 L 481.07089,81.732783 L 491.63728,81.732783 L 491.63728,86.281334 L 475.05305,86.281334 L 475.05305,62.944610 M 495.43555,62.944610 L 501.45340,62.944610 L 501.45340,86.281334 L 495.43555,86.281334 L 495.43555,62.944610 M 507.37746,62.944610 L 514.09868,62.944610 L 522.58618,78.950508 L 522.58618,62.944610 L 528.29141,62.944610 L 528.29141,86.281334 L 521.57019,86.281334 L 513.08268,70.275436 L 513.08268,86.281334 L 507.37746,86.281334 L 507.37746,62.944610 M 555.17632,84.546320 C 553.67574,85.275756 552.11788,85.822832 550.50272,86.187549 C 548.88752,86.552267 547.22024,86.734625 545.50088,86.734626 C 541.61402,86.734625 538.53476,85.650894 536.26310,83.483428 C 533.99142,81.305547 532.85559,78.356547 532.85559,74.636418 C 532.85559,70.874631 534.01226,67.915210 536.32562,65.758147 C 538.63896,63.601125 541.80680,62.522604 545.82912,62.522580 C 547.38176,62.522604 548.86668,62.668490 550.28389,62.960241 C 551.71148,63.252038 553.05572,63.684489 554.31662,64.257594 L 554.31662,69.087499 C 553.01404,68.347661 551.71669,67.795374 550.42456,67.430638 C 549.14282,67.065940 547.85589,66.883581 546.56377,66.883562 C 544.16704,66.883581 542.31740,67.555703 541.01485,68.899930 C 539.72270,70.233770 539.07663,72.145931 539.07663,74.636418 C 539.07663,77.106087 539.70185,79.013038 540.95232,80.357276 C 542.20277,81.701526 543.97947,82.373648 546.28241,82.373644 C 546.90763,82.373648 547.48597,82.337176 548.01743,82.264229 C 548.55928,82.180869 549.04383,82.055823 549.47109,81.889091 L 549.47109,77.356170 L 545.79786,77.356170 L 545.79786,73.323434 L 555.17632,73.323434 L 555.17632,84.546320 M 573.13605,62.944610 L 578.76313,62.944610 L 578.76313,71.901035 L 577.96596,78.434693 L 573.93322,78.434693 L 573.13605,71.901035 L 573.13605,62.944610 M 573.13605,80.716784 L 578.76313,80.716784 L 578.76313,86.281334 L 573.13605,86.281334 L 573.13605,80.716784 M 587.76645,62.944610 L 593.39353,62.944610 L 593.39353,71.901035 L 592.59636,78.434693 L 588.56362,78.434693 L 587.76645,71.901035 L 587.76645,62.944610 M 587.76645,80.716784 L 593.39353,80.716784 L 593.39353,86.281334 L 587.76645,86.281334 L 587.76645,80.716784"
       id="text1782" />
  </g>
  <g
     inkscape:groupmode="layer"
     id="layer7"
     inkscape:label="face"
     style="display:inline"
     sodipodi:insensitive="true">
    <g
       id="g2874"
       transform="matrix(0.233931,0.000000,0.000000,0.408180,-36.93883,47.37357)">
      <path
         sodipodi:nodetypes="csssc"
         id="path1411"
         d="M 777.58793,123.61582 C 783.66353,145.81629 754.93357,142.48555 724.67929,150.76523 C 694.42501,159.04490 674.04656,175.81511 667.97097,153.61464 C 661.89538,131.41417 681.51866,106.67667 711.77295,98.396997 C 742.02722,90.117323 771.51234,101.41535 777.58793,123.61582 z "
         style="opacity:0.41414139;fill:#58a432;fill-opacity:1.0000000;stroke:#000000;stroke-width:0.43788201;stroke-miterlimit:4.0000000;stroke-opacity:1.0000000" />
      <path
         sodipodi:nodetypes="csssc"
         id="path2143"
         d="M 748.62670,136.37533 C 752.03698,148.02370 741.35073,145.26964 727.43777,149.34291 C 713.52482,153.41618 701.62772,162.78191 698.21745,151.13353 C 694.80719,139.48515 703.33112,126.72557 717.24406,122.65230 C 731.15701,118.57904 745.21644,124.72696 748.62670,136.37533 z "
         style="opacity:0.41414139;fill:#000000;fill-opacity:1.0000000;stroke:#000000;stroke-width:0.37532419;stroke-miterlimit:4.0000000;stroke-opacity:1.0000000" />
    </g>
    <g
       id="g2878"
       transform="matrix(0.236006,0.000000,0.000000,0.366480,-36.80274,54.80295)">
      <path
         sodipodi:nodetypes="csssc"
         id="path2141"
         d="M 917.67269,158.22783 C 909.18075,179.62084 888.22514,159.68678 859.07125,148.11417 C 829.91737,136.54155 803.55073,137.69105 812.04267,116.29805 C 820.53462,94.905047 851.08774,86.934883 880.24163,98.507517 C 909.39551,110.08012 926.16463,136.83483 917.67269,158.22783 z "
         style="opacity:0.41414139;fill:#58a432;fill-opacity:1.0000000;stroke:#000000;stroke-width:0.43788201;stroke-miterlimit:4.0000000;stroke-opacity:1.0000000" />
      <path
         sodipodi:nodetypes="csssc"
         id="path2872"
         d="M 884.00851,150.64044 C 879.50586,161.91168 872.79494,153.15131 859.33243,147.77329 C 845.86994,142.39527 830.72871,142.42612 835.23136,131.15487 C 839.73401,119.88364 854.31443,115.10075 867.77691,120.47876 C 881.23940,125.85679 888.51115,139.36922 884.00851,150.64044 z "
         style="opacity:0.41414139;fill:#000000;fill-opacity:1.0000000;stroke:#000000;stroke-width:0.37532419;stroke-miterlimit:4.0000000;stroke-opacity:1.0000000" />
    </g>
  </g>
  <g
     inkscape:groupmode="layer"
     id="layer4"
     inkscape:label="Spiral"
     style="display:inline"
     sodipodi:insensitive="true">
    <path
       sodipodi:type="spiral"
       style="fill:url(#radialGradient5180);fill-opacity:1.0000000;fill-rule:evenodd;stroke:url(#radialGradient5198);stroke-width:1.0000000px;stroke-linecap:butt;stroke-linejoin:miter;stroke-opacity:1.0000000;display:inline"
       id="path4446"
       sodipodi:cx="460.92331"
       sodipodi:cy="102.13417"
       sodipodi:expansion="1.0000000"
       sodipodi:revolution="6.9712210"
       sodipodi:radius="256.94687"
       sodipodi:argument="-17.229214"
       sodipodi:t0="0.0000000"
       d="M 460.92331,102.13417 C 460.64874,107.67141 453.32376,104.49593 451.72006,101.67781 C 447.37412,94.040894 454.59301,85.643793 461.83602,83.727671 C 474.79207,80.300177 486.55525,91.213108 488.53306,103.50324 C 491.43558,121.53950 476.40862,137.06531 459.09788,138.94717 C 436.02539,141.45539 416.63179,122.17905 414.90706,99.852388 C 412.73666,71.756564 436.31995,48.451838 463.66145,46.914671 C 496.77567,45.052955 524.01385,72.972705 525.34606,105.32867 C 526.91602,143.45905 494.64268,174.64380 457.27246,175.76017 C 414.12705,177.04906 378.98732,140.41132 378.09406,98.026961 C 377.07908,49.867162 418.08849,10.766728 465.48688,10.101671 C 518.66070,9.3555768 561.72591,54.741771 562.15906,107.15409 C 562.63994,165.34171 512.87322,212.37470 455.44703,212.57317 C 392.24578,212.79160 341.24271,158.64154 341.28106,96.201535 C 341.32296,27.986739 399.85854,-26.988184 467.31230,-26.711329 C 540.54057,-26.410774 599.48876,36.512049 598.97206,108.97952 C 598.41419,187.22121 531.10275,250.14381 453.62160,249.38617 C 370.36652,248.57207 303.46857,176.87089 304.46806,94.376108 C 305.53750,6.1076555 381.62933,-64.766407 469.13773,-63.524329 C 562.41953,-62.200306 637.27036,18.282961 635.78506,110.80495 C 634.20708,209.10008 549.33173,287.92823 451.79618,286.19917 C 348.48772,284.36777 265.68178,195.09977 267.65506,92.550682 C 269.73942,-15.771096 363.40054,-102.55523 470.96315,-100.33733 C 584.29824,-98.000404 675.06092,0.054242878 672.59806,112.63037 C 670.00891,230.97877 567.56038,325.72030 449.97075,323.01217 C 326.60905,320.17111 227.88840,213.32836 230.84206,90.725255 C 233.93477,-37.649746 345.17200,-140.34976 472.78858,-137.15033 C 606.17688,-133.80620 712.85647,-18.174243 709.41106,114.45580 C 706.27208,235.28987 613.56124,338.38462 494.55800,356.87011"
       transform="matrix(0.499203,0.315479,-0.264353,0.796787,278.8553,-0.416115)" />
  </g>
  <g
     id="layer1"
     inkscape:label="madeby"
     inkscape:groupmode="layer"
     style="display:inline"
     sodipodi:insensitive="true">
    <path
       style="font-size:37.457710px;font-style:normal;font-variant:normal;font-weight:bold;font-stretch:normal;text-align:center;line-height:125.00000%;writing-mode:lr-tb;text-anchor:middle;opacity:0.73232323;fill:url(#linearGradient4436);fill-opacity:1.0000000;stroke:url(#linearGradient4444);stroke-width:0.99999988px;stroke-linecap:butt;stroke-linejoin:miter;stroke-opacity:1.0000000;font-family:Bitstream Vera Sans"
       d="M 38.536940,325.13984 L 38.553026,316.17780 L 53.177790,309.98548 L 38.575415,303.70411 L 38.591468,294.76037 L 65.898238,294.80938 L 65.886288,301.46689 L 45.913755,301.43104 L 60.625804,307.74919 L 60.617793,312.21191 L 45.883159,318.47720 L 65.855692,318.51305 L 65.843710,325.18885 L 38.536940,325.13984 M 56.708542,278.97210 C 56.706100,280.33776 56.935922,281.36851 57.398009,282.06434 C 57.860135,282.74800 58.542343,283.09064 59.444635,283.09225 C 60.273782,283.09375 60.926612,282.82057 61.403128,282.27272 C 61.867482,281.71267 62.100544,280.93882 62.102312,279.95115 C 62.104527,278.71965 61.667431,277.68243 60.791023,276.83951 C 59.902432,275.99659 58.793603,275.57394 57.464532,275.57154 L 56.714648,275.57019 L 56.708542,278.97210 M 54.257367,268.96312 L 65.944592,268.98410 L 65.932741,275.58674 L 62.896623,275.58129 C 64.138760,276.46145 65.045383,277.45073 65.616495,278.54913 C 66.175413,279.64755 66.453461,280.98321 66.450639,282.55613 C 66.446830,284.67776 65.827975,286.40199 64.594072,287.72884 C 63.348000,289.04349 61.737311,289.69903 59.762002,289.69548 C 57.359942,289.69117 55.599496,288.86497 54.480663,287.21686 C 53.361873,285.55658 52.805646,282.95840 52.811980,279.42236 L 52.818906,275.56320 L 52.306790,275.56228 C 51.270379,275.56044 50.513666,275.96755 50.036648,276.78363 C 49.547468,277.59971 49.301316,278.87347 49.298192,280.60490 C 49.295691,282.00713 49.433572,283.31205 49.711834,284.51968 C 49.990128,285.72733 50.408780,286.84986 50.967793,287.88728 L 45.974660,287.87832 C 45.635786,286.47549 45.382256,285.06671 45.214070,283.65198 C 45.033731,282.23724 44.944819,280.82267 44.947337,279.40824 C 44.953989,275.71370 45.690365,273.05080 47.156467,271.41951 C 48.610435,269.77605 50.977400,268.95725 54.257367,268.96312 M 48.495493,248.88873 L 37.521573,248.86903 L 37.533391,242.28467 L 65.992423,242.33575 L 65.980605,248.92011 L 63.017646,248.91479 C 64.223159,249.81927 65.105385,250.81460 65.664326,251.90080 C 66.223266,252.98701 66.501457,254.24342 66.498897,255.67002 C 66.494366,258.19403 65.490801,260.26508 63.488198,261.88319 C 61.473405,263.50128 58.886985,264.30749 55.728928,264.30182 C 52.570891,264.29616 49.993478,263.48068 47.996680,261.85538 C 45.987727,260.23007 44.985505,258.15542 44.990014,255.63142 C 44.992574,254.21701 45.281359,252.96771 45.856368,251.88354 C 46.419246,250.78716 47.298953,249.78889 48.495493,248.88873 M 61.747897,253.22893 C 61.750419,251.82672 61.240218,250.75890 60.217294,250.02545 C 59.194404,249.27984 57.707497,248.90527 55.756569,248.90176 C 53.805663,248.89827 52.317421,249.26750 51.291839,250.00943 C 50.266309,250.73920 49.752279,251.80519 49.749746,253.20740 C 49.747267,254.59744 50.257467,255.66526 51.280350,256.41088 C 52.303283,257.14432 53.790200,257.51279 55.741107,257.51629 C 57.692035,257.51980 59.180266,257.15667 60.205804,256.42690 C 61.231376,255.68496 61.745407,254.61898 61.747897,253.22893 M 55.743289,215.54091 L 57.608855,215.54426 L 57.581378,230.85288 C 59.118018,230.69713 60.271275,230.14441 61.041150,229.19470 C 61.811036,228.24502 62.197508,226.91665 62.200568,225.20958 C 62.203045,223.83175 62.004384,222.42308 61.604586,220.98354 C 61.192624,219.53181 60.573440,218.04312 59.747030,216.51746 L 64.795033,216.52653 C 65.377529,218.07613 65.813706,219.62546 66.103564,221.17451 C 66.405616,222.72362 66.555252,224.27243 66.552473,225.82095 C 66.545819,229.52772 65.601764,232.40973 63.720306,234.46701 C 61.826681,236.51209 59.178911,237.53157 55.776989,237.52546 C 52.436053,237.51946 49.810217,236.50881 47.899473,234.49348 C 45.988787,232.46597 45.036608,229.68420 45.042934,226.14815 C 45.048732,222.92915 46.022713,220.35812 47.964876,218.43504 C 49.907098,216.49982 52.499899,215.53511 55.743289,215.54091 M 53.554714,222.26767 C 52.311017,222.26546 51.310516,222.62946 50.553206,223.35968 C 49.783757,224.07771 49.397973,225.02200 49.395856,226.19254 C 49.393596,227.46065 49.751447,228.49162 50.469411,229.28546 C 51.175211,230.07931 52.198556,230.57497 53.539449,230.77246 L 53.554714,222.26767 M 61.867327,186.69040 C 61.869849,185.28819 61.359648,184.22037 60.336724,183.48691 C 59.313834,182.74131 57.826927,182.36675 55.875999,182.36323 C 53.925093,182.35974 52.436851,182.72896 51.411269,183.47089 C 50.385739,184.20067 49.871709,185.26665 49.869176,186.66886 C 49.866675,188.07110 50.382950,189.15114 51.418004,189.90897 C 52.440915,190.65460 53.921725,191.02915 55.860439,191.03262 C 57.799172,191.03611 59.287414,190.66689 60.325168,189.92495 C 61.350762,189.17082 61.864815,188.09263 61.867327,186.69040 M 48.599362,191.01959 C 47.406062,190.11515 46.529944,189.11373 45.971005,188.01533 C 45.399913,186.91692 45.115637,185.65441 45.118176,184.22778 C 45.122728,181.70379 46.132391,179.63275 48.147166,178.01464 C 50.149785,176.39655 52.730109,175.59033 55.888146,175.59598 C 59.046203,175.60167 61.629712,176.41715 63.638683,178.04244 C 65.635465,179.66776 66.631589,181.74240 66.627059,184.26639 C 66.624498,185.69301 66.341788,186.95451 65.778930,188.05088 C 65.203879,189.14725 64.318074,190.14551 63.121515,191.04565 L 66.084474,191.05097 L 66.072721,197.59874 L 37.613689,197.54766 L 37.625442,190.99989 L 48.599362,191.01959 M 45.631437,173.40107 L 45.643190,166.85330 L 59.553370,161.37299 L 45.661475,156.66584 L 45.673228,150.11807 L 68.081142,158.77285 C 70.359720,159.64267 71.949121,160.65756 72.849347,161.81753 C 73.761775,162.96535 74.216297,164.48423 74.212913,166.37416 L 74.206118,170.16017 L 69.907999,170.15245 L 69.911676,168.10399 C 69.913664,166.99441 69.738306,166.18934 69.385603,165.68878 C 69.032915,165.17604 68.399578,164.77862 67.485590,164.49653 L 66.918933,164.31261 L 45.631437,173.40107 M 86.012753,439.92117 L 91.792350,439.93155 C 91.119052,441.43013 90.610406,442.89241 90.266413,444.31838 C 89.922464,445.74440 89.749340,447.09145 89.747042,448.35953 C 89.744044,450.04221 89.973483,451.28634 90.435360,452.09191 C 90.897280,452.89751 91.615958,453.30117 92.591397,453.30291 C 93.323011,453.30423 93.896575,453.03701 94.312089,452.50125 C 94.715469,451.95328 95.064748,450.96626 95.359929,449.54015 L 95.968879,446.54170 C 96.584007,443.50670 97.514566,441.35016 98.760560,440.07208 C 100.00658,438.79405 101.77575,438.15707 104.06807,438.16117 C 107.07981,438.16659 109.32175,439.06683 110.79391,440.86185 C 112.25391,442.64472 112.98061,445.37122 112.97402,449.04137 C 112.97092,450.77282 112.80319,452.51006 112.47084,454.25309 C 112.13849,455.99614 111.64763,457.73890 110.99826,459.48137 L 105.05405,459.47070 C 105.98388,457.72874 106.68801,456.04733 107.16645,454.42647 C 107.63273,452.79342 107.86723,451.22091 107.86994,449.70893 C 107.87270,448.17260 107.61875,446.99549 107.10810,446.17761 C 106.59745,445.35976 105.86659,444.94998 104.91551,444.94825 C 104.06199,444.94674 103.40306,445.22599 102.93869,445.78604 C 102.47438,446.33392 102.05783,447.43666 101.68904,449.09427 L 101.08059,451.81838 C 100.49042,454.54862 99.554050,456.54663 98.271470,457.81243 C 96.988940,459.06604 95.262471,459.69089 93.092056,459.68700 C 90.372985,459.68212 88.283421,458.80046 86.823360,457.04199 C 85.363349,455.28355 84.636285,452.75824 84.642166,449.46605 C 84.644886,447.96630 84.763491,446.42406 84.997979,444.83934 C 85.220330,443.25464 85.558588,441.61524 86.012753,439.92117 M 105.39676,431.57917 L 105.40857,424.99482 L 112.48675,425.00753 L 112.47493,431.59188 L 105.39676,431.57917 M 111.06233,383.02960 C 111.73064,384.32331 112.23424,385.67157 112.57313,387.07438 C 112.91202,388.47724 113.08010,389.94073 113.07737,391.46487 C 113.06921,396.01296 111.79464,399.61379 109.25367,402.26735 C 106.70052,404.92090 103.24745,406.24378 98.894452,406.23596 C 94.529289,406.22813 91.080989,404.89287 88.549545,402.23019 C 86.005954,399.56750 84.738229,395.96211 84.746364,391.41402 C 84.749128,389.88988 84.922460,388.42700 85.266359,387.02536 C 85.610314,385.62378 86.118752,384.27734 86.791673,382.98604 L 92.443242,382.99618 C 91.550814,384.29928 90.896167,385.58450 90.479299,386.85183 C 90.062476,388.11919 89.852794,389.45399 89.850255,390.85619 C 89.845768,393.36801 90.646976,395.34476 92.253880,396.78644 C 93.860825,398.22814 96.078702,398.95153 98.907518,398.95660 C 101.72417,398.96166 103.93853,398.24623 105.55061,396.81031 C 107.16271,395.37441 107.97101,393.40055 107.97552,390.88872 C 107.97803,389.48652 107.77315,388.15098 107.36085,386.88213 C 106.94855,385.61331 106.29853,384.32575 105.41076,383.01946 L 111.06233,383.02960 M 100.13535,356.85540 L 112.60904,356.87779 L 112.59722,363.46213 L 110.56704,363.45849 L 103.08649,363.44506 C 101.29409,363.44187 100.06250,363.48233 99.391708,363.56646 C 98.720962,363.63844 98.226895,363.77167 97.909507,363.96618 C 97.482299,364.22149 97.152457,364.56840 96.919982,365.00693 C 96.675346,365.44546 96.552515,365.94517 96.551493,366.50604 C 96.549058,367.87170 97.077538,368.94566 98.136934,369.72791 C 99.184166,370.51017 100.64056,370.90298 102.50611,370.90631 L 112.58383,370.92440 L 112.57207,377.47217 L 84.113043,377.42109 L 84.124795,370.87332 L 95.098715,370.89302 C 93.905568,369.90322 93.029538,368.85303 92.470620,367.74244 C 91.899550,366.63183 91.615209,365.40590 91.617595,364.06463 C 91.621862,361.69915 92.350577,359.90805 93.803741,358.69132 C 95.256965,357.46242 97.367500,356.85045 100.13535,356.85540 M 97.741076,335.52504 C 97.471811,336.09766 97.275691,336.67039 97.152714,337.24323 C 97.017598,337.80390 96.949517,338.37076 96.948473,338.94383 C 96.945468,340.62652 97.485737,341.92607 98.569278,342.84250 C 99.640678,343.74673 101.18231,344.20065 103.19418,344.20425 L 112.63176,344.22119 L 112.62000,350.76897 L 92.135354,350.73220 L 92.147106,344.18442 L 95.512441,344.19046 C 94.172714,343.34673 93.198984,342.38172 92.591250,341.29541 C 91.971385,340.19692 91.662810,338.88558 91.665525,337.36142 C 91.665940,337.14196 91.678560,336.90421 91.703385,336.64817 C 91.716059,336.39215 91.753306,336.02033 91.815127,335.53269 L 97.741076,335.52504 M 92.168576,332.22285 L 92.180329,325.67508 L 112.66498,325.71185 L 112.65323,332.25962 L 92.168576,332.22285 M 84.194195,332.20854 L 84.205947,325.66077 L 89.546588,325.67035 L 89.534836,332.21812 L 84.194195,332.20854 M 92.860558,303.34431 L 97.835401,303.35324 C 97.247625,304.75443 96.806239,306.10709 96.511243,307.41122 C 96.216279,308.71539 96.067750,309.94664 96.065655,311.10498 C 96.063439,312.34871 96.220288,313.27568 96.536201,313.88590 C 96.839976,314.48392 97.314975,314.78351 97.961202,314.78466 C 98.485526,314.78561 98.888308,314.56076 99.169548,314.11011 C 99.450838,313.64727 99.659600,312.82461 99.795836,311.64209 L 99.962513,310.49013 C 100.39531,307.13776 101.10047,304.88327 102.07799,303.72664 C 103.05554,302.57006 104.58683,301.99363 106.67186,301.99735 C 108.85446,302.00129 110.49301,302.80899 111.58751,304.42044 C 112.68201,306.03194 113.22640,308.43499 113.22067,311.62961 C 113.21824,312.98306 113.10598,314.38509 112.88390,315.83569 C 112.67402,317.27412 112.35434,318.75503 111.92484,320.27841 L 106.95000,320.26948 C 107.58640,318.96595 108.06432,317.63164 108.38380,316.26656 C 108.70330,314.88930 108.86432,313.49346 108.86685,312.07904 C 108.86916,310.79876 108.69408,309.83518 108.34163,309.18829 C 107.98920,308.54142 107.46547,308.21736 106.77044,308.21610 C 106.18517,308.21506 105.75191,308.43987 105.47065,308.89049 C 105.17723,309.32895 104.95008,310.21255 104.78916,311.54131 L 104.64078,312.69331 C 104.26976,315.60685 103.58937,317.64800 102.59961,318.81677 C 101.60986,319.98556 100.10905,320.56814 98.097147,320.56452 C 95.926767,320.56063 94.318595,319.81395 93.272628,318.32449 C 92.226700,316.83504 91.706483,314.55397 91.711977,311.48126 C 91.714165,310.27414 91.807890,309.00621 91.993154,307.67746 C 92.178458,306.34874 92.467592,304.90436 92.860558,303.34431 M 86.428397,289.87137 L 92.244574,289.88181 L 92.256688,283.13286 L 96.938893,283.14126 L 96.926780,289.89022 L 105.61447,289.90581 C 106.56554,289.90753 107.21212,289.71970 107.55421,289.34230 C 107.88411,288.96491 108.05006,288.21533 108.05208,287.09354 L 108.05812,283.72821 L 112.74032,283.73661 L 112.73024,289.35159 C 112.72560,291.93657 112.18581,293.77069 111.11085,294.85395 C 110.02373,295.92502 108.18769,296.45823 105.60271,296.45358 L 96.915027,296.43799 L 96.909184,299.69359 L 92.226978,299.68519 L 92.232821,296.42958 L 86.416644,296.41914 L 86.428397,289.87137 M 96.469787,269.36810 C 96.467199,270.81910 96.989516,271.92963 98.036741,272.69967 C 99.071823,273.45753 100.57091,273.83822 102.53401,273.84173 C 104.49713,273.84526 106.00368,273.46998 107.05364,272.71586 C 108.09145,271.94956 108.61166,270.84090 108.61425,269.38990 C 108.61682,267.96331 108.10056,266.87108 107.06549,266.11322 C 106.01824,265.35538 104.51305,264.97468 102.54993,264.97114 C 100.58683,264.96763 99.086388,265.34294 98.048592,266.09704 C 96.998632,266.85115 96.472364,267.94151 96.469787,269.36810 M 91.787581,269.35969 C 91.793927,265.83587 92.749935,263.08800 94.655606,261.11609 C 96.561336,259.13203 99.196857,258.14301 102.56218,258.14903 C 105.92753,258.15509 108.55948,259.15356 110.45805,261.14445 C 112.35665,263.12319 113.30279,265.87448 113.29647,269.39830 C 113.29012,272.93435 112.33407,275.70051 110.42834,277.69678 C 108.52263,279.68087 105.88711,280.66989 102.52177,280.66385 C 99.156445,280.65781 96.524492,279.65933 94.625896,277.66842 C 92.727360,275.66532 91.781255,272.89575 91.787581,269.35969 M 84.359946,239.86300 L 88.658064,239.87071 L 88.651564,243.49211 C 88.649925,244.41880 88.819471,245.06535 89.160200,245.43175 C 89.488785,245.79815 90.067635,245.98209 90.896753,245.98357 L 92.323362,245.98613 L 92.333408,240.38943 L 97.015614,240.39783 L 97.005568,245.99453 L 112.80801,246.02290 L 112.79626,252.57067 L 96.993815,252.54230 L 96.987972,255.79790 L 92.305766,255.78949 L 92.311610,252.53390 L 90.885000,252.53134 C 88.653661,252.52733 87.008691,251.90253 85.950085,250.65691 C 84.879340,249.41128 84.346295,247.48378 84.350951,244.87442 L 84.359946,239.86300 M 84.389229,223.54846 L 88.687347,223.55617 L 88.680847,227.17756 C 88.679208,228.10426 88.848754,228.75081 89.189483,229.11721 C 89.518068,229.48360 90.096918,229.66754 90.926036,229.66902 L 92.352645,229.67158 L 92.362691,224.07488 L 97.044897,224.08328 L 97.034851,229.67998 L 112.83729,229.70835 L 112.82554,236.25612 L 97.023098,236.22776 L 97.017255,239.48336 L 92.335049,239.47495 L 92.340893,236.21936 L 90.914283,236.21680 C 88.682944,236.21279 87.037974,235.58798 85.979368,234.34237 C 84.908623,233.09673 84.375578,231.16924 84.380234,228.55988 L 84.389229,223.54846 M 102.59286,200.29805 L 104.45842,200.30140 L 104.43095,215.61002 C 105.96759,215.45427 107.12084,214.90154 107.89072,213.95184 C 108.66060,213.00216 109.04708,211.67379 109.05013,209.96672 C 109.05262,208.58890 108.85395,207.18022 108.45416,205.74067 C 108.04219,204.28896 107.42300,202.80027 106.59660,201.27460 L 111.64460,201.28366 C 112.22709,202.83328 112.66327,204.38261 112.95313,205.93165 C 113.25518,207.48075 113.40482,209.02957 113.40204,210.57810 C 113.39539,214.28485 112.45133,217.16686 110.56987,219.22415 C 108.67625,221.26922 106.02848,222.28870 102.62656,222.28260 C 99.285621,222.27660 96.659785,221.26595 94.749040,219.25062 C 92.838354,217.22311 91.886175,214.44134 91.892501,210.90529 C 91.898300,207.68629 92.872280,205.11525 94.814444,203.19219 C 96.756665,201.25696 99.349466,200.29225 102.59286,200.29805 M 100.40428,207.02482 C 99.160584,207.02259 98.160082,207.38660 97.402773,208.11682 C 96.633324,208.83486 96.247541,209.77915 96.245424,210.94969 C 96.243164,212.21780 96.601015,213.24877 97.318978,214.04261 C 98.024778,214.83645 99.048123,215.33211 100.38902,215.52960 L 100.40428,207.02482 M 98.019987,180.13433 C 97.750722,180.70694 97.554601,181.27967 97.431625,181.85252 C 97.296508,182.41318 97.228428,182.98005 97.227383,183.55312 C 97.224379,185.23580 97.764647,186.53535 98.848189,187.45178 C 99.919589,188.35602 101.46122,188.80994 103.47309,188.81354 L 112.91067,188.83048 L 112.89891,195.37825 L 92.414264,195.34148 L 92.426017,188.79371 L 95.791352,188.79975 C 94.451624,187.95601 93.477895,186.99100 92.870161,185.90470 C 92.250296,184.80621 91.941721,183.49487 91.944436,181.97070 C 91.944851,181.75124 91.957470,181.51350 91.982296,181.25746 C 91.994969,181.00144 92.032217,180.62962 92.094037,180.14198 L 98.019987,180.13433 M 85.649266,163.50489 L 85.683375,144.50171 L 91.005726,144.51126 L 90.984256,156.47283 L 96.068838,156.48196 L 96.089028,145.23370 L 101.41138,145.24325 L 101.39119,156.49151 L 107.64632,156.50274 L 107.66852,144.13879 L 112.99087,144.14834 L 112.95604,163.55390 L 85.649266,163.50489 M 84.542439,138.18963 L 84.554192,131.64185 L 113.01322,131.69294 L 113.00147,138.24071 L 84.542439,138.18963 M 92.539931,125.32790 L 92.551684,118.78013 L 113.03633,118.81690 L 113.02458,125.36467 L 92.539931,125.32790 M 84.565550,125.31359 L 84.577303,118.76582 L 89.917944,118.77540 L 89.906191,125.32317 L 84.565550,125.31359 M 102.78720,92.022037 L 104.65277,92.025386 L 104.62529,107.33400 C 106.16193,107.17826 107.31519,106.62553 108.08506,105.67583 C 108.85495,104.72615 109.24142,103.39777 109.24448,101.69071 C 109.24696,100.31289 109.04830,98.904208 108.64850,97.464666 C 108.23654,96.012945 107.61735,94.524255 106.79095,92.998589 L 111.83895,93.007650 C 112.42144,94.557264 112.85762,96.106592 113.14748,97.655640 C 113.44953,99.204750 113.59917,100.75356 113.59639,102.30209 C 113.58973,106.00884 112.64568,108.89085 110.76421,110.94814 C 108.87059,112.99321 106.22283,114.01269 102.82090,114.00658 C 99.479965,114.00059 96.854129,112.98993 94.943385,110.97461 C 93.032698,108.94710 92.080520,106.16533 92.086845,102.62928 C 92.092644,99.410277 93.066624,96.839245 95.008788,94.916174 C 96.951009,92.980951 99.543811,92.016240 102.78720,92.022037 M 100.59863,98.748801 C 99.354928,98.746586 98.354427,99.110589 97.597118,99.840807 C 96.827669,100.55885 96.441885,101.50314 96.439768,102.67367 C 96.437508,103.94178 96.795359,104.97276 97.513322,105.76660 C 98.219123,106.56043 99.242467,107.05610 100.58336,107.25359 L 100.59863,98.748801 M 93.277479,71.062999 L 98.252323,71.071929 C 97.664546,72.473119 97.223160,73.825779 96.928164,75.129915 C 96.633201,76.434080 96.484672,77.665335 96.482577,78.823681 C 96.480360,80.067401 96.637210,80.994371 96.953123,81.604593 C 97.256898,82.202617 97.731897,82.502206 98.378124,82.503357 C 98.902448,82.504307 99.305229,82.279454 99.586469,81.828799 C 99.867760,81.365968 100.07652,80.543297 100.21276,79.360784 L 100.37943,78.208817 C 100.81223,74.856457 101.51739,72.601967 102.49491,71.445342 C 103.47246,70.288755 105.00375,69.712323 107.08879,69.716045 C 109.27138,69.719983 110.90993,70.527680 112.00443,72.139138 C 113.09893,73.750633 113.64332,76.153683 113.63759,79.348300 C 113.63516,80.701760 113.52290,82.103784 113.30082,83.554378 C 113.09094,84.992814 112.77127,86.473723 112.34176,87.997108 L 107.36692,87.988179 C 108.00332,86.684644 108.48125,85.350338 108.80072,83.985259 C 109.12022,82.607999 109.28124,81.212158 109.28377,79.797733 C 109.28608,78.517454 109.11100,77.553871 108.75855,76.906982 C 108.40612,76.260119 107.88239,75.936058 107.18736,75.934796 C 106.60209,75.933760 106.16883,76.158557 105.88757,76.609190 C 105.59415,77.047635 105.36700,77.931240 105.20608,79.260006 L 105.05770,80.412005 C 104.68668,83.325541 104.00629,85.366693 103.01653,86.535466 C 102.02679,87.704247 100.52597,88.286831 98.514069,88.283218 C 96.343689,88.279324 94.735516,87.532648 93.689549,86.043187 C 92.643621,84.553735 92.123405,82.272660 92.128899,79.199954 C 92.131086,77.992835 92.224811,76.724903 92.410076,75.396155 C 92.595380,74.067435 92.884514,72.623051 93.277479,71.062999 M 102.87282,44.322077 L 104.73839,44.325425 L 104.71091,59.634043 C 106.24755,59.478297 107.40080,58.925573 108.17068,57.975870 C 108.94057,57.026187 109.32704,55.697814 109.33009,53.990747 C 109.33258,52.612926 109.13392,51.204247 108.73412,49.764705 C 108.32215,48.312985 107.70296,46.824294 106.87656,45.298630 L 111.92456,45.307690 C 112.50705,46.857304 112.94323,48.406632 113.23309,49.955680 C 113.53514,51.504785 113.68478,53.053599 113.68200,54.602127 C 113.67535,58.308882 112.73130,61.190896 110.84983,63.248177 C 108.95621,65.293252 106.30844,66.312735 102.90652,66.306627 C 99.565582,66.300633 96.939746,65.289974 95.029001,63.274650 C 93.118315,61.247143 92.166136,58.465368 92.172462,54.929318 C 92.178261,51.710317 93.152241,49.139286 95.094405,47.216214 C 97.036626,45.280990 99.629428,44.316279 102.87282,44.322077 M 100.68424,51.048842 C 99.440545,51.046625 98.440043,51.410628 97.682734,52.140849 C 96.913285,52.858887 96.527502,53.803173 96.525385,54.973710 C 96.523125,56.241820 96.880976,57.272794 97.598939,58.066634 C 98.304739,58.860473 99.328084,59.356138 100.66898,59.553629 L 100.68424,51.048842 M 100.74215,18.785512 L 113.21584,18.807901 L 113.20402,25.392253 L 111.17384,25.388609 L 103.65671,25.375117 C 101.88870,25.371960 100.66930,25.412449 99.998509,25.496580 C 99.327763,25.568553 98.833696,25.701792 98.516308,25.896298 C 98.089100,26.151606 97.759259,26.498523 97.526783,26.937047 C 97.282147,27.375582 97.159317,27.875285 97.158294,28.436160 C 97.155859,29.801816 97.684339,30.875773 98.743735,31.658033 C 99.790967,32.440293 101.24736,32.833091 103.11291,32.836430 L 113.19063,32.854518 L 113.17887,39.402291 L 92.694225,39.365523 L 92.705978,32.817750 L 95.705517,32.823134 C 94.512369,31.833348 93.636339,30.783154 93.077422,29.672550 C 92.506351,28.561951 92.222010,27.336016 92.224397,25.994745 C 92.228663,23.629274 92.957378,21.838171 94.410543,20.621431 C 95.863766,19.392540 97.974301,18.780568 100.74215,18.785512"
       id="text1482" />
  </g>
</svg>
